# xmcd
#
# Track frame offsets:
#	150
#	4379
#	23445
#	39044
#	57044
#	60876
#	84835
#	108989
#	135652
#	160972
#	185733
#	212424
#	240836
#	262001
#
# Disc length: 3544 seconds
#
# Revision: 1
# Processed by: cddbd v1.5.2PL0 Copyright (c) Steve Scherf et al.
# Submitted via: CDmax 1.9
#
DISCID=a00dd60e
DTITLE=Little Axe - Bought For A Dollar - Sold For A Dime
DYEAR=2010
DGENRE=Blues
TTITLE0=Guide My Feet
TTITLE1=Soul Of A Man
TTITLE2=Grinning
TTITLE3=Take A Stroll
TTITLE4=Hands Off
TTITLE5=Can't Sleep
TTITLE6=Hammerhead
TTITLE7=Can't Stop Walking Yet
TTITLE8=Hear Me Cry
TTITLE9=Too Late
TTITLE10=Another Friend Gone
TTITLE11=Tell Me Why
TTITLE12=Return
TTITLE13=When The Sun Goes Down
EXTD=
EXTT0=
EXTT1=
EXTT2=
EXTT3=
EXTT4=
EXTT5=
EXTT6=
EXTT7=
EXTT8=
EXTT9=
EXTT10=
EXTT11=
EXTT12=
EXTT13=
PLAYORDER=
